<svg height="24" viewBox="0 0 24 24" width="24" xmlns="http://www.w3.org/2000/svg"><path d="m6.516 14.323-1.49 6.452c-.092.399.068.814.406 1.047.171.118.369.178.568.178.193 0 .387-.056.555-.168l5.445-3.63 5.445 3.63c.348.232.805.223 1.145-.024.338-.247.487-.68.372-1.082l-1.829-6.4 4.536-4.082c.297-.268.406-.686.278-1.064-.129-.378-.47-.644-.868-.676l-5.701-.454-2.467-5.461c-.161-.359-.518-.589-.911-.589s-.75.23-.911.589l-2.467 5.461-5.701.453c-.392.031-.729.288-.861.657-.134.369-.038.782.242 1.056zm2.853-4.326c.363-.029.683-.253.832-.586l1.799-3.981 1.799 3.981c.149.333.469.557.832.586l3.972.315-3.271 2.944c-.284.256-.397.65-.293 1.018l1.253 4.385-3.736-2.491c-.336-.225-.773-.225-1.109 0l-3.904 2.603 1.05-4.546c.078-.34-.026-.697-.276-.94l-3.038-2.962z"/></svg>