<svg height="24" viewBox="0 0 24 24" width="24" xmlns="http://www.w3.org/2000/svg"><g fill="none"><path d="m12 8c-1.178 0-2 .822-2 2s.822 2 2 2 2-.822 2-2-.822-2-2-2z"/><path d="m12 4c-4.337 0-8 3.663-8 8 0 2.176.923 4.182 2.39 5.641.757-1.8 2.538-3.068 4.61-3.068h2c2.072 0 3.854 1.269 4.61 3.068 1.467-1.459 2.39-3.465 2.39-5.641 0-4.337-3.663-8-8-8zm0 10c-2.28 0-4-1.72-4-4s1.72-4 4-4 4 1.72 4 4-1.72 4-4 4z"/><path d="m13 16.572h-2c-1.432 0-2.629 1.01-2.926 2.354 1.168.678 2.51 1.074 3.926 1.074s2.758-.396 3.926-1.073c-.297-1.345-1.494-2.355-2.926-2.355z"/></g><path d="m12 2c-5.421 0-10 4.579-10 10 0 3.189 1.592 6.078 4 7.924v.076h.102c1.668 1.245 3.711 2 5.898 2s4.23-.755 5.898-2h.102v-.076c2.408-1.846 4-4.734 4-7.924 0-5.421-4.579-10-10-10zm-3.926 16.927c.297-1.345 1.494-2.354 2.926-2.354h2c1.432 0 2.629 1.01 2.926 2.354-1.168.677-2.51 1.073-3.926 1.073s-2.758-.396-3.926-1.073zm9.536-1.286c-.757-1.8-2.538-3.068-4.61-3.068h-2c-2.072 0-3.854 1.269-4.61 3.068-1.467-1.459-2.39-3.465-2.39-5.641 0-4.337 3.663-8 8-8s8 3.663 8 8c0 2.176-.923 4.182-2.39 5.641z"/><path d="m12 6c-2.28 0-4 1.72-4 4s1.72 4 4 4 4-1.72 4-4-1.72-4-4-4zm0 6c-1.178 0-2-.822-2-2s.822-2 2-2 2 .822 2 2-.822 2-2 2z"/></svg>